<svg width="130" height="130" viewBox="0 0 130 130" fill="none" xmlns="http://www.w3.org/2000/svg">
<g filter="url(#filter0_d_2403_946)">
<path d="M40 40V82.3227H57.44L65 90L72.55 82.3227H90V40H40Z" fill="white"/>
</g>
<path d="M75.031 59.8751L72.895 56.3321C72.7386 56.0748 72.5189 55.8619 72.2568 55.7138C71.9947 55.5657 71.699 55.4873 71.398 55.4861H69.721V55.2371C69.721 54.8775 69.65 54.5214 69.512 54.1894C69.374 53.8573 69.1718 53.5557 68.917 53.3021C68.4018 52.7887 67.7043 52.5003 66.977 52.5001H56.994C56.4506 52.4965 55.9186 52.6551 55.4659 52.9556C55.0132 53.2561 54.6606 53.6849 54.453 54.1871C54.3156 54.52 54.2463 54.877 54.249 55.2371V64.1951C54.2495 64.6158 54.4025 65.022 54.6796 65.3386C54.9567 65.6552 55.3391 65.8607 55.756 65.9171C55.7513 66.0071 55.7513 66.0967 55.756 66.1861C55.7524 66.6102 55.8346 67.0307 55.9975 67.4223C56.1604 67.8139 56.4007 68.1686 56.704 68.4651C57.0016 68.7748 57.3579 69.0223 57.752 69.1932C58.1462 69.364 58.5704 69.4547 59 69.4601C59.8573 69.4523 60.6775 69.1091 61.285 68.5041C61.8919 67.9 62.2367 67.0813 62.245 66.2251C62.2501 66.1425 62.2501 66.0596 62.245 65.9771H67.754C67.7488 66.0596 67.7488 66.1425 67.754 66.2251C67.7503 66.6494 67.8324 67.07 67.9953 67.4618C68.1582 67.8536 68.3985 68.2085 68.702 68.5051C68.9998 68.8151 69.3564 69.0627 69.751 69.2335C70.1455 69.4044 70.5701 69.495 71 69.5001C71.8573 69.4923 72.6775 69.1491 73.285 68.5441C73.8915 67.9398 74.236 67.1212 74.244 66.2651C74.2491 66.1821 74.2491 66.099 74.244 66.0161H75C75.1972 66.0132 75.3857 65.9338 75.5254 65.7946C75.6652 65.6554 75.7454 65.4673 75.749 65.2701V62.3941C75.749 61.5041 75.5 60.6321 75.031 59.8751ZM60.737 66.1851C60.7373 66.4137 60.6915 66.64 60.6023 66.8504C60.5131 67.0609 60.3824 67.2513 60.218 67.4101C59.8853 67.7262 59.4439 67.9024 58.985 67.9024C58.5261 67.9024 58.0847 67.7262 57.752 67.4101C57.5898 67.2483 57.4614 67.0558 57.3742 66.844C57.287 66.6322 57.2427 66.4051 57.244 66.1761C57.2393 65.9395 57.2871 65.7049 57.384 65.4891C57.516 65.1761 57.743 64.9121 58.032 64.7321C58.3276 64.5367 58.6757 64.4362 59.03 64.4441C59.368 64.4441 59.698 64.5441 59.978 64.7321C60.265 64.9151 60.491 65.1781 60.628 65.4891C60.726 65.7041 60.778 65.9391 60.777 66.1761L60.737 66.1851ZM63.981 61.2091H58.991C58.7268 61.2088 58.4735 61.104 58.2863 60.9176C58.0991 60.7312 57.9933 60.4782 57.992 60.2141C57.9917 60.083 58.0174 59.9532 58.0674 59.8321C58.1175 59.711 58.1911 59.601 58.2838 59.5085C58.3766 59.4159 58.4867 59.3426 58.6079 59.2928C58.7291 59.2429 58.8589 59.2175 58.99 59.2181H63.981C64.2452 59.2186 64.4984 59.3236 64.6854 59.5102C64.8724 59.6969 64.9779 59.9499 64.979 60.2141C64.9791 60.345 64.9534 60.4747 64.9032 60.5957C64.8531 60.7167 64.7795 60.8265 64.6868 60.919C64.594 61.0114 64.4839 61.0847 64.3628 61.1345C64.2417 61.1842 64.1119 61.2096 63.981 61.2091ZM63.981 57.7851H58.991C58.7268 57.7848 58.4735 57.68 58.2863 57.4936C58.0991 57.3072 57.9933 57.0542 57.992 56.7901C57.9918 56.6591 58.0176 56.5294 58.0677 56.4084C58.1179 56.2875 58.1914 56.1776 58.2842 56.0851C58.3769 55.9927 58.487 55.9194 58.6081 55.8697C58.7293 55.8199 58.859 55.7945 58.99 55.7951H63.981C64.245 55.7956 64.4981 55.9005 64.685 56.0869C64.872 56.2733 64.9777 56.5261 64.979 56.7901C64.9791 56.921 64.9534 57.0507 64.9032 57.1717C64.8531 57.2927 64.7795 57.4025 64.6868 57.495C64.594 57.5874 64.4839 57.6607 64.3628 57.7105C64.2417 57.7602 64.1119 57.7856 63.981 57.7851ZM72.715 66.1851C72.7151 66.4137 72.6692 66.6401 72.5798 66.8506C72.4905 67.061 72.3596 67.2513 72.195 67.4101C71.8623 67.7259 71.4212 67.902 70.9625 67.902C70.5038 67.902 70.0626 67.7259 69.73 67.4101C69.5676 67.2483 69.439 67.056 69.3517 66.8441C69.2643 66.6323 69.2199 66.4052 69.221 66.1761C69.2167 65.8135 69.3328 65.4597 69.551 65.1701C69.797 64.8431 70.15 64.6101 70.549 64.5131H70.799C70.8447 64.5022 70.8923 64.5022 70.938 64.5131H71.138C71.441 64.5481 71.73 64.6611 71.976 64.8421C72.223 65.0231 72.416 65.2671 72.535 65.5491C72.634 65.7641 72.685 65.9991 72.685 66.2351L72.715 66.1851Z" fill="#306095"/>
<path d="M70.9599 64.4341C70.9139 64.423 70.866 64.423 70.8199 64.4341H70.9599Z" fill="#306095"/>
<defs>
<filter id="filter0_d_2403_946" x="0" y="0" width="130" height="130" filterUnits="userSpaceOnUse" color-interpolation-filters="sRGB">
<feFlood flood-opacity="0" result="BackgroundImageFix"/>
<feColorMatrix in="SourceAlpha" type="matrix" values="0 0 0 0 0 0 0 0 0 0 0 0 0 0 0 0 0 0 127 0" result="hardAlpha"/>
<feOffset/>
<feGaussianBlur stdDeviation="20"/>
<feComposite in2="hardAlpha" operator="out"/>
<feColorMatrix type="matrix" values="0 0 0 0 0 0 0 0 0 0 0 0 0 0 0 0 0 0 0.25 0"/>
<feBlend mode="normal" in2="BackgroundImageFix" result="effect1_dropShadow_2403_946"/>
<feBlend mode="normal" in="SourceGraphic" in2="effect1_dropShadow_2403_946" result="shape"/>
</filter>
</defs>
</svg>
