<?xml version="1.0" encoding="utf-8"?>
<!-- Svg Vector Icons : http://www.onlinewebfonts.com/icon -->
<!DOCTYPE svg PUBLIC "-//W3C//DTD SVG 1.1//EN" "http://www.w3.org/Graphics/SVG/1.1/DTD/svg11.dtd">
<svg version="1.1" xmlns="http://www.w3.org/2000/svg" xmlns:xlink="http://www.w3.org/1999/xlink" x="0px" y="0px" viewBox="0 0 256 256" enable-background="new 0 0 256 256" xml:space="preserve">
<metadata> Svg Vector Icons : http://www.onlinewebfonts.com/icon </metadata>
<g><g><g><path fill="#000000" d="M29.9,13.1c-8.7,3.8-17.6,14.6-19.1,23.1c-0.6,3.8-1.1,36.4-0.6,72.9c0.6,62.9,0.8,66.3,5.1,71.8c9.7,13.1,13.6,14.6,43.4,15.3l27.5,0.8l20.1,24.2c11.2,13.3,21.2,24.2,22,24.2c0.8,0,10.8-10.8,22-24.2l20.1-24.2l27.5-0.8c29.9-0.6,33.7-2.1,43.4-15.3c4.2-5.5,4.5-8.5,4.5-77.6c0-69.1-0.2-72-4.5-77.6c-2.3-3.2-7-7.8-10.2-10.2c-5.7-4.2-8.5-4.5-100.4-4.9C55.5,10.4,35,10.8,29.9,13.1z M224.8,32.4l5.3,5.1v65.9v65.9l-5.3,5.1c-4.9,5.1-6.1,5.3-33.7,5.3h-28.4l-16.3,19.5c-9.1,10.8-17.2,19.7-18,19.7c-0.8,0-9.1-8.9-18.2-19.7l-16.3-19.5H65.5c-27.3,0-28.6-0.2-33.5-5.3l-5.3-5.1v-65.9V37.5l5.3-5.1l5.1-5.3h91.3h91.3L224.8,32.4z"/><path fill="#000000" d="M43.6,69.5V78h84.8h84.8v-8.5V61h-84.8H43.6V69.5z"/><path fill="#000000" d="M43.6,103.4v8.5h84.8h84.8v-8.5v-8.5h-84.8H43.6V103.4z"/><path fill="#000000" d="M43.6,137.3v8.5h84.8h84.8v-8.5v-8.5h-84.8H43.6V137.3z"/></g></g></g>
</svg>