<?xml version="1.0" encoding="utf-8"?>
<!-- Svg Vector Icons : http://www.onlinewebfonts.com/icon -->
<!DOCTYPE svg PUBLIC "-//W3C//DTD SVG 1.1//EN" "http://www.w3.org/Graphics/SVG/1.1/DTD/svg11.dtd">
<svg version="1.1" xmlns="http://www.w3.org/2000/svg" xmlns:xlink="http://www.w3.org/1999/xlink" x="0px" y="0px" viewBox="0 0 256 256" enable-background="new 0 0 256 256" xml:space="preserve">
<metadata> Svg Vector Icons : http://www.onlinewebfonts.com/icon </metadata>
<g><g><g><path fill="#000000" d="M41.6,16.5C26.4,18.7,13.4,31,10.5,45.9C10,48.4,9.9,66.7,10,111.5l0.2,62.1l1.5,3.9c4.4,11.3,11.8,18.8,23.1,23.1l3.9,1.5l25.7,0.2l25.7,0.2l18.8,18.8l18.8,18.8l18.8-18.8l18.8-18.8h24.2c27.1,0,28.5-0.2,36.1-4c6.4-3.1,13-9.8,16.3-16.4c4.4-8.9,4.2-6,4-74.8l-0.2-61.3l-1.6-4.3c-5-13.8-16-23-30-25.1C209.4,15.8,46.7,15.7,41.6,16.5z M215.8,29.7c4.4,1.3,7.5,3.3,11,6.9c3.6,3.7,5.6,7.9,6.5,13.1c0.5,2.6,0.6,21.6,0.5,62.1l-0.2,58.3l-1.3,3.4c-2.5,6.7-8.1,12.5-14.6,15c-3.4,1.4-3.6,1.4-30.5,1.6l-27.1,0.2l-16,16l-16,16l-16-16l-16-16H70c-20.1,0-26.6-0.2-28.9-0.8c-9.1-2.4-16.3-10-18.2-19c-0.5-2.4-0.6-18.6-0.5-63l0.2-59.8l1.3-3.2c3-6.9,8.3-12.1,15.3-14.6c3.1-1.1,5.2-1.1,88.4-1.2C204.1,28.7,212.9,28.8,215.8,29.7z"/></g></g></g>
</svg>